<?xml version="1.0" standalone="no"?>
<!DOCTYPE svg PUBLIC "-//W3C//DTD SVG 20010904//EN"
 "http://www.w3.org/TR/2001/REC-SVG-20010904/DTD/svg10.dtd">
<svg version="1.0" xmlns="http://www.w3.org/2000/svg"
 width="200.000000pt" height="200.000000pt" viewBox="0 0 200.000000 200.000000"
 preserveAspectRatio="xMidYMid meet">
<metadata>
Created by potrace 1.14, written by Peter Selinger 2001-2017
</metadata>
<g transform="translate(0.000000,200.000000) scale(0.100000,-0.100000)"
fill="#000000" stroke="none">
<path d="M529 1976 c-65 -26 -108 -54 -162 -105 -38 -35 -77 -98 -77 -123 0
-7 10 6 21 30 37 74 174 173 287 207 43 13 21 -12 -38 -44 -61 -33 -95 -62
-40 -34 50 25 43 11 -26 -45 -76 -62 -121 -120 -171 -222 -21 -41 -48 -89 -60
-106 -13 -17 -23 -36 -23 -42 0 -6 -23 -41 -51 -77 -58 -76 -42 -72 50 11 68
62 67 53 -6 -52 -25 -36 -43 -67 -41 -70 3 -2 19 17 37 42 18 25 36 43 38 40
3 -3 -5 -29 -17 -58 -15 -34 -24 -78 -26 -123 -3 -69 -3 -69 5 -17 14 83 23
75 20 -15 -4 -100 5 -116 17 -31 l9 63 3 -67 c3 -60 5 -67 25 -70 27 -4 34
-35 11 -52 -14 -11 -16 -22 -10 -76 8 -72 60 -223 83 -242 15 -12 15 -11 4 10
-7 13 -11 26 -8 28 7 7 38 -46 43 -74 6 -33 14 -42 14 -17 0 16 4 15 30 -10
16 -15 27 -31 25 -35 -3 -4 3 -7 12 -6 12 1 19 -12 27 -49 6 -27 16 -49 21
-47 6 1 11 -16 13 -38 3 -41 15 -52 26 -24 5 13 11 10 32 -16 37 -44 44 -28 7
18 -16 20 -51 74 -77 120 -26 45 -52 82 -56 82 -5 0 -8 13 -8 29 1 16 -5 44
-12 61 -20 47 -7 45 34 -6 40 -53 45 -51 17 4 -11 21 -22 53 -25 72 -9 49 -14
163 -9 178 7 17 23 15 23 -4 0 -10 6 -14 14 -11 7 3 18 1 23 -4 5 -5 20 -2 37
6 39 21 54 7 19 -17 l-28 -20 39 7 c39 6 39 6 33 -23 -5 -26 -4 -29 13 -25 11
3 20 11 20 19 0 32 22 19 70 -44 45 -57 52 -63 47 -37 -14 71 -19 105 -15 105
3 0 19 -23 37 -51 18 -27 35 -49 37 -47 2 2 -1 21 -7 41 -5 21 -9 63 -7 95 l3
57 22 -40 c18 -32 22 -35 23 -18 0 12 4 24 9 27 13 8 41 -4 41 -18 0 -6 8 -20
16 -31 15 -19 15 -18 9 17 -6 31 -4 39 10 44 11 5 21 1 27 -10 7 -13 17 -16
41 -10 18 3 38 11 46 17 7 6 29 12 48 13 l35 1 -5 -61 c-3 -34 -1 -52 3 -41 9
26 24 -103 16 -147 -5 -28 -2 -26 19 17 13 28 24 42 24 33 1 -15 -31 -164 -46
-213 -4 -13 15 -1 53 34 32 29 59 59 60 66 1 7 11 22 23 34 12 12 21 27 21 35
0 8 5 18 12 22 8 5 9 2 5 -10 -16 -40 -20 -69 -9 -62 12 7 36 68 52 134 6 23
15 42 19 42 5 0 15 -19 24 -42 8 -24 22 -63 32 -87 11 -32 13 -47 5 -55 -8 -8
-13 -7 -19 3 -11 17 -23 -2 -15 -23 8 -20 -21 -32 -40 -17 -10 8 -20 6 -40
-10 -14 -11 -26 -25 -26 -30 0 -5 -21 -28 -46 -51 -25 -23 -41 -44 -35 -46 12
-4 46 20 115 81 24 20 46 37 50 37 12 0 6 -40 -9 -57 -36 -41 -86 -115 -81
-120 7 -7 41 32 62 70 8 16 18 26 21 23 3 -3 -4 -22 -17 -42 -18 -32 -19 -35
-3 -23 10 8 23 21 30 29 6 8 18 24 27 35 25 33 18 1 -9 -41 l-25 -39 29 33
c16 19 35 55 42 80 7 26 17 50 23 54 6 4 31 -12 55 -35 35 -33 41 -36 28 -14
-10 15 -22 38 -27 52 -9 23 -8 25 9 15 11 -5 28 -20 38 -32 11 -15 26 -22 41
-20 28 4 28 18 0 26 -28 7 -88 62 -88 81 0 7 12 28 28 46 15 18 22 30 16 26
-17 -10 -26 21 -13 41 8 13 9 14 6 2 -3 -10 2 -16 13 -16 12 0 18 7 17 18 -1
10 -5 18 -9 18 -4 0 -8 5 -8 12 0 6 9 3 20 -7 18 -16 20 -16 20 -2 0 10 -5 17
-11 17 -6 0 4 16 22 35 30 31 34 33 47 17 13 -16 13 -16 8 0 -3 10 -1 20 3 22
11 7 2 56 -10 56 -12 0 -11 21 0 39 8 13 12 13 27 0 16 -13 16 -12 1 18 -10
18 -24 36 -34 41 -10 6 -14 16 -9 27 6 17 7 17 26 0 10 -9 18 -20 17 -24 -3
-11 24 -51 35 -51 11 0 6 78 -8 115 -6 15 1 12 29 -12 21 -18 40 -33 42 -33 3
0 -8 26 -24 58 -16 31 -34 83 -41 114 -8 43 -15 56 -26 51 -8 -3 -14 1 -14 11
0 21 29 20 46 -1 11 -15 15 -16 23 -4 6 9 14 -2 26 -40 26 -81 35 -82 35 -3 0
56 -7 85 -36 154 -19 47 -36 95 -38 107 -2 13 -9 30 -17 40 -12 15 -12 16 1 9
8 -4 -6 13 -32 37 -27 25 -48 47 -48 50 0 2 23 -2 52 -9 29 -8 71 -14 93 -13
l40 0 -57 20 c-31 10 -125 62 -210 115 -84 53 -169 103 -188 111 -55 24 -17
27 42 3 29 -12 61 -26 70 -31 52 -27 20 14 -41 53 l-45 28 -440 0 c-437 0
-441 -1 -497 -24z m981 -336 c0 -5 -5 -10 -11 -10 -5 0 -7 5 -4 10 3 6 8 10
11 10 2 0 4 -4 4 -10z m134 -31 c-3 -5 -10 -7 -15 -3 -5 3 -7 10 -3 15 3 5 10
7 15 3 5 -3 7 -10 3 -15z m-260 -130 c-3 -5 -10 -7 -15 -3 -5 3 -7 10 -3 15 3
5 10 7 15 3 5 -3 7 -10 3 -15z m406 -29 c0 -5 -4 -10 -9 -10 -6 0 -13 5 -16
10 -3 6 1 10 9 10 9 0 16 -4 16 -10z m-24 -47 c-3 -4 -18 0 -32 8 l-26 14 23
6 c23 5 48 -15 35 -28z m-55 7 c22 -13 25 -52 5 -70 -21 -16 -56 -9 -72 15
-12 18 -11 24 2 43 17 24 35 27 65 12z m-908 -43 c-8 -13 -21 2 -18 21 6 28 6
28 14 7 5 -11 6 -23 4 -28z m208 -104 c41 -75 115 -183 124 -183 3 0 -5 17
-18 38 -36 57 -39 62 -34 62 6 0 97 -111 97 -119 0 -3 -42 -6 -92 -6 -51 -1
-103 -4 -115 -9 -20 -7 -22 -4 -29 41 -11 71 -8 189 6 223 7 17 14 30 16 30 1
0 22 -35 45 -77z m-343 40 c-4 -22 -22 -20 -26 1 -2 10 3 16 13 16 10 0 15 -7
13 -17z m837 -84 c0 -29 -3 -34 -24 -34 -18 0 -27 8 -34 28 -12 36 5 59 36 48
17 -6 22 -17 22 -42z m-785 21 c0 -14 -51 -62 -59 -54 -3 4 0 9 7 11 6 3 12
10 12 17 0 14 20 36 32 36 4 0 8 -4 8 -10z m400 -6 c0 -17 -22 -14 -28 4 -2 7
3 12 12 12 9 0 16 -7 16 -16z m-290 -54 c0 -5 -4 -10 -10 -10 -5 0 -10 5 -10
10 0 6 5 10 10 10 6 0 10 -4 10 -10z m750 -10 c0 -5 7 -10 15 -10 8 0 15 -4
15 -10 0 -13 -6 -13 -31 0 -20 11 -26 30 -9 30 6 0 10 -4 10 -10z m-998 -77
c14 -43 26 -79 25 -80 -1 0 -24 1 -50 4 -47 6 -48 6 -42 37 11 60 28 116 34
116 3 0 18 -35 33 -77z m-185 20 c-3 -10 -5 -4 -5 12 0 17 2 24 5 18 2 -7 2
-21 0 -30z m522 -45 c1 -10 -6 -18 -14 -18 -12 0 -15 12 -14 53 l1 52 13 -35
c7 -19 14 -43 14 -52z m-129 32 c0 -5 -4 -10 -10 -10 -5 0 -10 5 -10 10 0 6 5
10 10 10 6 0 10 -4 10 -10z m498 -2 c-6 -18 -28 -21 -28 -4 0 9 7 16 16 16 9
0 14 -5 12 -12z m272 1 c0 -6 19 -9 47 -7 47 3 47 3 49 -29 2 -31 -10 -46 -18
-23 -2 7 -13 6 -30 -2 -25 -12 -26 -17 -21 -55 4 -28 1 -48 -9 -62 -15 -21
-16 -21 -47 27 -17 27 -31 55 -31 63 0 8 -5 20 -11 26 -6 6 -8 20 -5 31 9 29
76 57 76 31z m-1173 -91 c-2 -13 -4 -3 -4 22 0 25 2 35 4 23 2 -13 2 -33 0
-45z m467 47 c3 -8 1 -15 -4 -15 -6 0 -10 7 -10 15 0 8 2 15 4 15 2 0 6 -7 10
-15z m-178 -61 c12 -10 11 -14 -3 -25 -10 -7 -15 -10 -11 -5 4 5 1 18 -7 30
-8 11 -15 27 -15 36 1 11 4 9 12 -5 6 -11 17 -25 24 -31z m249 36 c-3 -5 -13
-10 -21 -10 -8 0 -12 5 -9 10 3 6 13 10 21 10 8 0 12 -4 9 -10z m-528 -97 c-3
-10 -5 -4 -5 12 0 17 2 24 5 18 2 -7 2 -21 0 -30z m1125 -8 c26 -29 34 -45 28
-55 -5 -8 -4 -22 1 -32 11 -21 3 -42 -12 -32 -5 3 -16 1 -23 -5 -26 -22 -49
72 -24 97 9 9 10 15 2 20 -14 9 -30 56 -17 51 5 -2 26 -22 45 -44z"/>
<path d="M275 900 c2 -70 8 -117 19 -140 l16 -35 -7 35 c-3 19 -12 82 -19 140
l-12 105 3 -105z"/>
<path d="M1110 980 c-8 -5 -28 -10 -45 -10 -41 0 -65 -16 -33 -22 37 -7 108
11 108 28 0 16 -9 18 -30 4z"/>
<path d="M1326 683 c-6 -14 -5 -15 5 -6 7 7 10 15 7 18 -3 3 -9 -2 -12 -12z"/>
<path d="M680 685 c0 -15 18 -40 24 -34 3 3 -1 14 -9 25 -8 10 -14 15 -15 9z"/>
<path d="M1680 530 c0 -25 -7 -72 -15 -104 -9 -33 -14 -61 -12 -63 2 -2 16 24
31 56 15 33 31 63 36 66 16 10 11 28 -15 60 l-25 30 0 -45z m30 -30 c0 -5 -2
-10 -4 -10 -3 0 -8 5 -11 10 -3 6 -1 10 4 10 6 0 11 -4 11 -10z"/>
<path d="M725 500 c4 -6 11 -8 16 -5 14 9 11 15 -7 15 -8 0 -12 -5 -9 -10z"/>
<path d="M1309 453 c-13 -16 -12 -17 4 -4 16 13 21 21 13 21 -2 0 -10 -8 -17
-17z"/>
<path d="M1790 405 c0 -9 -22 -49 -50 -90 -50 -75 -69 -115 -27 -59 30 41 91
94 109 94 20 0 38 -21 38 -45 0 -12 5 -26 11 -32 9 -9 9 -20 0 -44 -13 -38
-14 -49 -3 -49 5 0 14 17 21 38 15 45 3 84 -50 157 -34 47 -49 56 -49 30z"/>
<path d="M698 353 c7 -3 16 -2 19 1 4 3 -2 6 -13 5 -11 0 -14 -3 -6 -6z"/>
<path d="M1960 179 c0 -11 5 -17 10 -14 6 3 10 13 10 21 0 8 -4 14 -10 14 -5
0 -10 -9 -10 -21z"/>
<path d="M1767 63 c-15 -20 -24 -39 -21 -42 4 -3 9 -1 11 5 2 6 11 20 19 30
14 18 15 18 9 -6 -6 -24 -5 -24 10 3 9 15 20 27 25 27 5 0 10 -12 12 -27 l4
-28 8 28 c10 32 9 32 -24 40 -20 5 -30 -1 -53 -30z"/>
<path d="M1545 54 c-9 -15 -12 -23 -6 -20 11 7 35 46 28 46 -3 0 -12 -12 -22
-26z"/>
<path d="M1936 42 c-4 -18 -5 -36 -2 -39 11 -12 17 5 14 39 l-3 33 -9 -33z"/>
<path d="M330 41 c0 -5 -3 -16 -6 -25 -5 -12 1 -15 24 -13 28 2 29 3 13 24
-17 23 -31 30 -31 14z"/>
</g>
</svg>
